<svg xmlns="http://www.w3.org/2000/svg" xmlns:xlink="http://www.w3.org/1999/xlink" width="273" height="204.794" viewBox="0 0 273 204.794">
  <defs>
    <clipPath id="clip-path">
      <rect id="Rectángulo_225" data-name="Rectángulo 225" width="273" height="204.794" fill="none"/>
    </clipPath>
  </defs>
  <g id="Grupo_289" data-name="Grupo 289" clip-path="url(#clip-path)">
    <path id="Trazado_6035" data-name="Trazado 6035" d="M71.9,53.333C19.578,54.578,7.051,23.045,6.551,21.649a7.151,7.151,0,0,1,13.364-5.095c.442,1.1,10.1,23.484,51.643,22.5,42.338-1.012,50.492-24.612,50.55-24.891a7.147,7.147,0,1,1,13.6,4.408c-.407,1.407-11.422,33.51-63.81,34.766" transform="translate(64.784 97.88)" fill="#e75e1e"/>
    <path id="Trazado_6036" data-name="Trazado 6036" d="M191.673,0H81.338C29.707,0,0,31.4,0,102.089c0,71.789,29.707,102.659,81.338,102.659H171.6c5.63-.163,10.619.14,20.076,0,51.6,0,81.327-30.87,81.327-102.659C273,31.4,243.27,0,191.673,0m39,172.97c.349,6.269-1.3,13.585-10.189,10.131-5.327-2.07-13.993-5.443-23.891-5.792-.442,0-25.368,0-26.659.058H83.3c-26.973,0-54.563-8.921-54.563-75.162,0-65.717,27.59-74.592,54.563-74.592H189.65c26.973,0,54.574,8.875,54.574,74.592,0,31.23-6.118,49.713-15.423,60.541a51.989,51.989,0,0,1,1.873,10.224" transform="translate(0 0.006)" fill="#e75e1e"/>
  </g>
</svg>
